<svg version="1.1" xmlns:xlink="http://www.w3.org/1999/xlink" xmlns="http://www.w3.org/2000/svg" viewBox="0 357.3204 900 244.79999999999998" id="visual" style="max-height: 500px" width="900" height="244.79999999999998">
    <path fill="#dbc13b" d="M0 447L129 404L257 362L386 444L514 391L643 441L771 361L900 414L900 601L771 601L643 601L514 601L386 601L257 601L129 601L0 601Z"/>
    <path fill="#65a657" d="M0 479L129 455L257 465L386 434L514 405L643 459L771 461L900 427L900 601L771 601L643 601L514 601L386 601L257 601L129 601L0 601Z"/>
    <path fill="#007d6d" d="M0 447L129 453L257 496L386 477L514 483L643 452L771 441L900 470L900 601L771 601L643 601L514 601L386 601L257 601L129 601L0 601Z"/>
    <path fill="#004f60" d="M0 523L129 492L257 532L386 492L514 502L643 495L771 494L900 526L900 601L771 601L643 601L514 601L386 601L257 601L129 601L0 601Z"/>
    <path fill="#152435" d="M0 570L129 539L257 525L386 573L514 533L643 554L771 528L900 568L900 601L771 601L643 601L514 601L386 601L257 601L129 601L0 601Z"/>
</svg>