<svg version="1.1" xmlns="http://www.w3.org/2000/svg" viewBox="0 357.3204 900 244.79999999999998" id="visual" style="max-height: 500px" width="900" height="244.79999999999998">
    <path fill="#dbc13b" d="M0 444L129 439L257 370L386 403L514 423L643 368L771 432L900 418L900 601L771 601L643 601L514 601L386 601L257 601L129 601L0 601Z"/>
    <path fill="#65a657" d="M0 445L129 462L257 441L386 439L514 448L643 426L771 446L900 452L900 601L771 601L643 601L514 601L386 601L257 601L129 601L0 601Z"/>
    <path fill="#007d6d" d="M0 455L129 505L257 454L386 459L514 481L643 459L771 442L900 456L900 601L771 601L643 601L514 601L386 601L257 601L129 601L0 601Z"/>
    <path fill="#004f60" d="M0 514L129 536L257 510L386 488L514 504L643 514L771 505L900 487L900 601L771 601L643 601L514 601L386 601L257 601L129 601L0 601Z"/>
    <path fill="#152435" d="M0 554L129 570L257 544L386 562L514 552L643 552L771 536L900 534L900 601L771 601L643 601L514 601L386 601L257 601L129 601L0 601Z"/>
</svg>